<?xml version="1.0" standalone="no"?>
<!DOCTYPE svg PUBLIC "-//W3C//DTD SVG 20010904//EN"
 "http://www.w3.org/TR/2001/REC-SVG-20010904/DTD/svg10.dtd">
<svg version="1.0" xmlns="http://www.w3.org/2000/svg"
 width="1000.000000pt" height="1000.000000pt" viewBox="0 0 1000.000000 1000.000000"
 preserveAspectRatio="xMidYMid meet">
<metadata>
Created by potrace 1.14, written by Peter Selinger 2001-2017
</metadata>
<g transform="translate(0.000000,1000.000000) scale(0.100000,-0.100000)"
fill="#000000" stroke="none">
<path d="M3217 7193 c-3 -5 -6 -1182 -8 -2618 l-4 -2610 623 -3 622 -2 0 1220
c0 969 3 1220 13 1220 6 0 22 -15 34 -33 13 -17 38 -49 57 -70 20 -20 72 -81
116 -135 44 -53 118 -142 165 -197 46 -55 110 -131 142 -170 31 -38 75 -89 97
-112 l40 -43 821 1 c451 0 845 5 875 10 30 5 86 13 124 19 38 5 74 14 80 18 6
5 29 14 51 20 61 16 114 37 127 50 7 7 20 12 29 12 10 0 20 4 23 9 3 5 23 18
44 29 157 81 404 310 514 476 18 27 45 68 60 90 40 60 129 229 163 311 7 17
20 47 29 68 9 21 16 46 16 55 0 10 7 27 15 38 8 10 14 28 15 39 0 11 6 40 14
65 32 101 50 201 56 313 9 156 -5 438 -25 501 -8 27 -15 65 -15 85 -1 20 -7
47 -15 61 -8 14 -15 41 -15 60 0 19 -7 46 -15 60 -8 14 -15 36 -15 50 0 14 -7
34 -15 44 -8 11 -15 26 -15 34 0 8 -9 33 -19 56 -44 93 -62 132 -71 146 -5 8
-26 44 -46 80 -91 157 -260 350 -379 432 -168 117 -196 134 -294 183 -102 51
-174 75 -356 118 -90 21 -96 21 -1872 24 -980 2 -1784 0 -1786 -4z m3395
-1019 c15 -8 34 -14 44 -14 21 0 183 -165 211 -215 59 -108 108 -222 135 -315
5 -19 16 -57 24 -84 8 -28 14 -93 14 -154 0 -102 -9 -152 -47 -262 -8 -25 -17
-57 -20 -72 -3 -15 -11 -33 -19 -39 -8 -6 -14 -18 -14 -25 0 -31 -89 -168
-152 -234 -45 -48 -115 -105 -158 -129 -69 -39 -100 -40 -1148 -41 -557 0
-1017 2 -1023 5 -5 4 -9 310 -9 800 0 626 3 794 13 798 6 2 487 2 1067 -1 864
-4 1060 -7 1082 -18z"/>
</g>
</svg>
